<?xml version="1.0" encoding="utf-8"?>
<!-- Generator: Adobe Illustrator 20.1.0, SVG Export Plug-In . SVG Version: 6.00 Build 0)  -->
<!DOCTYPE svg PUBLIC "-//W3C//DTD SVG 1.1//EN" "http://www.w3.org/Graphics/SVG/1.1/DTD/svg11.dtd">
<svg version="1.1" id="Layer_1" xmlns="http://www.w3.org/2000/svg" xmlns:xlink="http://www.w3.org/1999/xlink" x="0px" y="0px"
	 viewBox="0 0 57 57" style="enable-background:new 0 0 57 57;" xml:space="preserve">
<style type="text/css">
	.st0{clip-path:url(#SVGID_2_);}
	.st1{fill:none;stroke:#447DC0;stroke-miterlimit:10;}
	.st2{fill:none;stroke:#447DC0;stroke-linejoin:bevel;stroke-miterlimit:10;}
</style>
<g>
	<defs>
		<path id="SVGID_1_" d="M56.5,28.5c0,15.5-12.5,28-28,28c-15.5,0-28-12.5-28-28c0-3,0.5-5.9,1.4-8.7l0.1,0l26.6,8.6V0.6V0.5
			C44,0.5,56.5,13,56.5,28.5z"/>
	</defs>
	<clipPath id="SVGID_2_">
		<use xlink:href="#SVGID_1_"  style="overflow:visible;"/>
	</clipPath>
	<g class="st0">
		<line class="st1" x1="-41.6" y1="57" x2="16" y2="-0.6"/>
		<line class="st1" x1="-34.8" y1="57" x2="22.7" y2="-0.6"/>
		<line class="st1" x1="-28.1" y1="57" x2="29.5" y2="-0.6"/>
		<line class="st1" x1="-21.3" y1="57" x2="36.2" y2="-0.6"/>
		<line class="st1" x1="-14.6" y1="57" x2="43" y2="-0.6"/>
		<line class="st1" x1="-7.8" y1="57" x2="49.7" y2="-0.6"/>
		<line class="st1" x1="-1.1" y1="57" x2="56.5" y2="-0.6"/>
		<line class="st1" x1="5.7" y1="57" x2="63.2" y2="-0.6"/>
		<line class="st1" x1="12.4" y1="57" x2="70" y2="-0.6"/>
		<line class="st1" x1="19.2" y1="57" x2="76.7" y2="-0.6"/>
		<line class="st1" x1="25.9" y1="57" x2="83.5" y2="-0.6"/>
		<line class="st1" x1="32.7" y1="57" x2="90.2" y2="-0.6"/>
		<line class="st1" x1="39.4" y1="57" x2="97" y2="-0.6"/>
		<line class="st1" x1="46.2" y1="57" x2="103.7" y2="-0.6"/>
	</g>
</g>
<circle class="st1" cx="28.5" cy="28.5" r="28"/>
<polyline class="st2" points="1.9,19.9 28.5,28.5 28.5,0.6 28.5,0.5 "/>
</svg>
