<?xml version="1.0" encoding="utf-8"?>
<!-- Generator: Adobe Illustrator 20.1.0, SVG Export Plug-In . SVG Version: 6.00 Build 0)  -->
<!DOCTYPE svg PUBLIC "-//W3C//DTD SVG 1.1//EN" "http://www.w3.org/Graphics/SVG/1.1/DTD/svg11.dtd">
<svg version="1.1" id="Layer_1" xmlns="http://www.w3.org/2000/svg" xmlns:xlink="http://www.w3.org/1999/xlink" x="0px" y="0px"
	 viewBox="0 0 57.5 57.5" style="enable-background:new 0 0 57.5 57.5;" xml:space="preserve">
<style type="text/css">
	.st0{fill:none;stroke:#447DC0;stroke-miterlimit:10;}
	.st1{clip-path:url(#SVGID_2_);}
</style>
<g>
	<g>
		<circle class="st0" cx="28.7" cy="28.7" r="28"/>
		<polyline class="st0" points="45.1,51.3 28.7,28.7 28.7,0.7 		"/>
	</g>
	<g>
		<defs>
			<path id="SVGID_1_" d="M56.7,28.7c0,9.3-4.5,17.5-11.5,22.6l-0.1,0L28.7,28.7V0.7V0.7C44.2,0.7,56.7,13.2,56.7,28.7z"/>
		</defs>
		<clipPath id="SVGID_2_">
			<use xlink:href="#SVGID_1_"  style="overflow:visible;"/>
		</clipPath>
		<g class="st1">
			<line class="st0" x1="-47.9" y1="57.1" x2="9.6" y2="-0.4"/>
			<line class="st0" x1="-41.2" y1="57.1" x2="16.4" y2="-0.4"/>
			<line class="st0" x1="-34.4" y1="57.1" x2="23.1" y2="-0.4"/>
			<line class="st0" x1="-27.7" y1="57.1" x2="29.9" y2="-0.4"/>
			<line class="st0" x1="-20.9" y1="57.1" x2="36.6" y2="-0.4"/>
			<line class="st0" x1="-14.2" y1="57.1" x2="43.4" y2="-0.4"/>
			<line class="st0" x1="-7.4" y1="57.1" x2="50.1" y2="-0.4"/>
			<line class="st0" x1="-0.7" y1="57.1" x2="56.9" y2="-0.4"/>
			<line class="st0" x1="6.1" y1="57.1" x2="63.6" y2="-0.4"/>
			<line class="st0" x1="12.8" y1="57.1" x2="70.4" y2="-0.4"/>
			<line class="st0" x1="19.6" y1="57.1" x2="77.1" y2="-0.4"/>
			<line class="st0" x1="26.3" y1="57.1" x2="83.9" y2="-0.4"/>
			<line class="st0" x1="33.1" y1="57.1" x2="90.6" y2="-0.4"/>
			<line class="st0" x1="39.8" y1="57.1" x2="97.4" y2="-0.4"/>
		</g>
	</g>
</g>
</svg>
