<?xml version="1.0" encoding="utf-8"?>
<!-- Generator: Adobe Illustrator 19.2.0, SVG Export Plug-In . SVG Version: 6.00 Build 0)  -->
<!DOCTYPE svg PUBLIC "-//W3C//DTD SVG 1.1//EN" "http://www.w3.org/Graphics/SVG/1.1/DTD/svg11.dtd">
<svg version="1.1" id="Layer_1" xmlns="http://www.w3.org/2000/svg" xmlns:xlink="http://www.w3.org/1999/xlink" x="0px" y="0px"
	 viewBox="0 0 21.3 37.6" enable-background="new 0 0 21.3 37.6" xml:space="preserve">
<g>
	<path fill="#FFFFFF" d="M5,17.2c0.4-3.4,2.9-5.6,5.7-5.6c2.9,0,5.2,2.2,5.6,5.6h4.9c-0.5-6.2-4.9-9.7-9.4-9.7
		c-3.3,0-5.3,1.7-6.9,3.9V0H0v17.2H5z"/>
	<path fill="#FFFFFF" d="M5,20.4c0.4,3.4,2.9,5.6,5.7,5.6c2.9,0,5.2-2.2,5.6-5.6h4.9c-0.5,6.2-4.9,9.7-9.4,9.7
		c-3.3,0-5.3-1.7-6.9-3.9v11.4H0V20.4H5z"/>
</g>
<g>
</g>
<g>
</g>
<g>
</g>
<g>
</g>
<g>
</g>
<g>
</g>
</svg>
