<?xml version="1.0" encoding="utf-8"?>
<!-- Generator: Adobe Illustrator 20.1.0, SVG Export Plug-In . SVG Version: 6.00 Build 0)  -->
<!DOCTYPE svg PUBLIC "-//W3C//DTD SVG 1.1//EN" "http://www.w3.org/Graphics/SVG/1.1/DTD/svg11.dtd">
<svg version="1.1" id="Layer_1" xmlns="http://www.w3.org/2000/svg" xmlns:xlink="http://www.w3.org/1999/xlink" x="0px" y="0px"
	 width="79.3px" height="41.4px" viewBox="0 0 79.3 41.4" style="enable-background:new 0 0 79.3 41.4;" xml:space="preserve">
<style type="text/css">
	.st0{fill:#9BCB3C;}
	.st1{fill:#333333;}
</style>
<g>
	<path class="st0" d="M5.5,19c0.5-3.7,3.2-6.2,6.3-6.2s5.7,2.4,6.2,6.2h5.4C22.9,12.1,18,8.3,13,8.3c-3.6,0-5.8,1.9-7.6,4.3V0H0v19
		H5.5z"/>
	<path class="st1" d="M5.5,22.4c0.5,3.7,3.2,6.2,6.3,6.2s5.7-2.4,6.2-6.2h5.4C22.9,29.3,18,33.1,13,33.1c-3.6,0-5.8-1.9-7.6-4.3
		v12.6H0v-19C0,22.4,5.5,22.4,5.5,22.4z"/>
	<g>
		<path class="st1" d="M29.9,17.4v1.3h-1V9.1h1v4.2c0.5-0.8,1.3-1.5,2.6-1.5c1.6,0,3.2,1.3,3.2,3.6l0,0c0,2.2-1.6,3.6-3.2,3.6
			C31.2,18.9,30.4,18.2,29.9,17.4z M34.7,15.3L34.7,15.3c0-1.6-1.1-2.7-2.4-2.7c-1.2,0-2.4,1.1-2.4,2.6l0,0c0,1.6,1.2,2.7,2.4,2.7
			C33.6,18,34.7,17,34.7,15.3z"/>
		<path class="st1" d="M37.2,11.9h1v1.8c0.5-1.1,1.5-2,2.7-1.9v1.1h-0.1c-1.5,0-2.7,1.1-2.7,3.1v2.7h-1L37.2,11.9L37.2,11.9z"/>
		<path class="st1" d="M42.4,9.3h1.1v1.1h-1.1V9.3z M42.5,11.9h1v6.9h-1V11.9z"/>
		<path class="st1" d="M45,15.3L45,15.3c0-2.3,1.6-3.6,3.2-3.6c1.2,0,2,0.7,2.6,1.5V9.1h1v9.7h-1v-1.4c-0.5,0.8-1.3,1.5-2.6,1.5
			C46.6,18.9,45,17.6,45,15.3z M50.8,15.3L50.8,15.3c0-1.6-1.2-2.7-2.4-2.7c-1.3,0-2.4,1-2.4,2.6l0,0c0,1.6,1.1,2.7,2.4,2.7
			C49.6,18,50.8,16.9,50.8,15.3z"/>
		<path class="st1" d="M53.6,20l0.5-0.8c0.8,0.6,1.6,0.9,2.6,0.9c1.5,0,2.4-0.8,2.4-2.4v-0.8c-0.6,0.8-1.4,1.4-2.6,1.4
			c-1.6,0-3.1-1.2-3.1-3.2l0,0c0-2,1.6-3.2,3.1-3.2c1.3,0,2.1,0.6,2.6,1.4v-1.2h1v5.7c0,1.1-0.3,1.9-0.9,2.4
			c-0.6,0.6-1.5,0.9-2.5,0.9C55.6,20.9,54.5,20.6,53.6,20z M59.1,15L59.1,15c0-1.4-1.2-2.3-2.5-2.3s-2.3,0.9-2.3,2.3l0,0
			c0,1.4,1.1,2.3,2.3,2.3C57.9,17.3,59.1,16.4,59.1,15z"/>
		<path class="st1" d="M65,18c0.9,0,1.6-0.4,2.1-1l0.6,0.6c-0.7,0.8-1.5,1.3-2.8,1.3c-1.8,0-3.3-1.4-3.3-3.6c0-2,1.4-3.6,3.2-3.6
			c2,0,3.1,1.6,3.1,3.6c0,0.1,0,0.2,0,0.4h-5.3C62.8,17.2,63.8,18,65,18z M66.9,14.9c-0.1-1.2-0.8-2.3-2.1-2.3c-1.2,0-2,1-2.2,2.3
			H66.9z"/>
		<path class="st1" d="M28.9,22.7h1v1.4c0.5-0.8,1.3-1.5,2.6-1.5c1.6,0,3.2,1.3,3.2,3.6l0,0c0,2.2-1.6,3.6-3.2,3.6
			c-1.2,0-2-0.7-2.6-1.5v3.4h-1V22.7z M34.7,26.2L34.7,26.2c0-1.6-1.1-2.7-2.4-2.7c-1.2,0-2.4,1.1-2.4,2.6l0,0
			c0,1.6,1.2,2.7,2.4,2.7C33.6,28.8,34.7,27.9,34.7,26.2z"/>
		<path class="st1" d="M36.9,27.6L36.9,27.6c0-1.5,1.2-2.3,2.9-2.3c0.9,0,1.4,0.1,2,0.3v-0.2c0-1.2-0.7-1.9-2-1.9
			c-0.8,0-1.4,0.2-2,0.5l-0.3-0.8c0.7-0.3,1.4-0.6,2.4-0.6c0.9,0,1.7,0.3,2.2,0.8s0.7,1.1,0.7,2v4.2h-1v-1c-0.5,0.6-1.2,1.2-2.4,1.2
			C38.1,29.8,36.9,29,36.9,27.6z M41.8,27.1v-0.6c-0.5-0.1-1.1-0.3-2-0.3c-1.2,0-2,0.6-2,1.4l0,0c0,0.9,0.8,1.4,1.7,1.4
			C40.8,28.9,41.8,28.2,41.8,27.1z"/>
		<path class="st1" d="M44.4,22.7h1v1.8c0.5-1.1,1.5-2,2.7-1.9v1.1H48c-1.5,0-2.7,1.1-2.7,3.1v2.7h-1L44.4,22.7L44.4,22.7z"/>
		<path class="st1" d="M49.9,27.8v-4.1H49v-0.9h0.9v-2.1h1v2.1H53v0.9h-2.1v4c0,0.8,0.5,1.1,1.1,1.1c0.3,0,0.6-0.1,1-0.2v0.9
			c-0.3,0.2-0.7,0.3-1.2,0.3C50.7,29.7,49.9,29.2,49.9,27.8z"/>
		<path class="st1" d="M54.5,22.7h1v1.2c0.4-0.7,1.1-1.3,2.3-1.3c1.6,0,2.6,1.1,2.6,2.7v4.3h-1v-4c0-1.3-0.7-2.1-1.8-2.1
			c-1.2,0-2,0.9-2,2.1v3.9h-1L54.5,22.7L54.5,22.7z"/>
		<path class="st1" d="M65.2,28.9c0.9,0,1.6-0.4,2.1-1l0.6,0.6c-0.7,0.8-1.5,1.3-2.8,1.3c-1.8,0-3.3-1.4-3.3-3.6
			c0-2,1.4-3.6,3.2-3.6c2,0,3.1,1.6,3.1,3.6c0,0.1,0,0.2,0,0.4h-5.3C63,28,64,28.9,65.2,28.9z M67.2,25.8c-0.1-1.2-0.8-2.3-2.1-2.3
			c-1.2,0-2,1-2.2,2.3H67.2z"/>
		<path class="st1" d="M69.8,22.7h1v1.8c0.5-1.1,1.5-2,2.7-1.9v1.1h-0.1c-1.5,0-2.7,1.1-2.7,3.1v2.7h-1L69.8,22.7L69.8,22.7z"/>
		<path class="st1" d="M74.2,28.7l0.5-0.7c0.7,0.6,1.5,0.9,2.3,0.9s1.4-0.4,1.4-1.1l0,0c0-0.7-0.8-1-1.7-1.2c-1-0.3-2.2-0.7-2.2-1.9
			l0,0c0-1.2,1-2,2.3-2c0.8,0,1.7,0.3,2.4,0.8l-0.5,0.8c-0.6-0.4-1.3-0.7-2-0.7c-0.8,0-1.3,0.4-1.3,1l0,0c0,0.7,0.8,0.9,1.7,1.2
			c1,0.3,2.1,0.7,2.1,2l0,0c0,1.3-1,2.1-2.4,2.1C76,29.7,74.9,29.4,74.2,28.7z"/>
	</g>
</g>
</svg>
